<?xml version="1.0" encoding="utf-8"?>
<!-- Generator: Adobe Illustrator 25.2.3, SVG Export Plug-In . SVG Version: 6.00 Build 0)  -->
<svg version="1.1" id="Layer_1" xmlns="http://www.w3.org/2000/svg" xmlns:xlink="http://www.w3.org/1999/xlink" x="0px" y="0px"
	 viewBox="0 0 24 24" style="enable-background:new 0 0 24 24;" xml:space="preserve">
<style type="text/css">
	.st0{fill:none;}
	.st1{fill:#FFFFFF;}
</style>
<path class="st0" d="M0,0h24v24H0V0z"/>
<circle class="st1" cx="8.5" cy="14.5" r="1.5"/>
<circle class="st1" cx="15.5" cy="14.5" r="1.5"/>
<path class="st1" d="M12,2C8,2,4,2.5,4,6v9.5C4,17.4,5.6,19,7.5,19L6,20.5V21h2l2-2h4l2,2h2v-0.5L16.5,19c1.9,0,3.5-1.6,3.5-3.5V6
	C20,2.5,16,2,12,2z M12,4c3.5,0,5,0.5,5.6,1H6.4C7,4.5,8.5,4,12,4z M6,7h5v3H6V7z M18,15.5c0,0.8-0.7,1.5-1.5,1.5h-9
	C6.7,17,6,16.3,6,15.5V12h12V15.5z M18,10h-5V7h5V10z"/>
</svg>
